#!OML:ASF E:\inclinewalkrobotboard\Project 1\Capture day 1\Session 1\subject1.ASF
:FULLY-SPECIFIED
:DEGREES
284
root 6.92026 16.3552 -10.7088 -170.621 -27.4122 -182.466
lowerback -5.1518 5.7222 -5.93816
upperback 1.12536 8.02063 -0.226628
thorax 3.26459 3.86789 3.63488
lowerneck -1.68373 14.1615 9.29821
upperneck 7.22025 19.4505 -11.2175
head 4.44616 9.46067 -3.70185
rclavicle -4.63168e-014 9.14409e-015
rhumerus -54.4948 -37.0087 -57.6629
rradius 25.9227
rwrist 18.3171
rhand -20.6529 -44.2959
rfingers 7.12502
rthumb 5.70949 -74.199
lclavicle -4.63168e-014 9.14409e-015
lhumerus -30.7912 18.3465 62.8494
lradius 8.11344
lwrist -45.746
lhand -35.5967 -17.8053
lfingers 7.12502
lthumb -8.72059 11.9946
rfemur -20.0045 4.219 11.0014
rtibia 9.83815
rfoot -3.06025 -9.49759
rtoes -25.0538
lfemur -4.81795 -7.51806 -25.0784
ltibia 11.3463
lfoot -4.93052 -16.5844
ltoes -24.1645
285
root 6.91712 16.3572 -10.6902 -170.506 -27.994 -182.582
lowerback -5.20942 5.8984 -5.91197
upperback 1.04225 8.25685 -0.357123
thorax 3.20933 3.98966 3.5
lowerneck -0.907223 14.4729 9.27169
upperneck 6.61737 19.8767 -11.2693
head 4.18291 9.71223 -3.7504
rclavicle 1.06723e-013 -2.78299e-014
rhumerus -54.3974 -36.7049 -57.9618
rradius 26.2492
rwrist 17.761
rhand -20.9965 -44.1948
rfingers 7.12502
rthumb 5.37773 -74.1066
lclavicle 1.06723e-013 -2.78299e-014
lhumerus -31.1807 18.8146 61.8187
lradius 8.73804
lwrist -46.4653
lhand -35.3133 -18.4952
lfingers 7.12502
lthumb -8.44715 11.3158
rfemur -19.9327 4.01461 10.7541
rtibia 9.67768
rfoot -2.9217 -9.9475
rtoes -25.7563
lfemur -5.08995 -7.84451 -25.1929
ltibia 11.5707
lfoot -4.69684 -16.7211
ltoes -24.3369
286
root 6.90773 16.3587 -10.6824 -170.394 -28.5124 -182.711
lowerback -5.51826 6.03352 -5.97603
upperback 1.01562 8.46344 -0.44948
thorax 3.33931 4.08598 3.48648
lowerneck -0.740317 14.7789 8.9242
upperneck 6.45512 20.2683 -10.9276
head 4.07564 9.9199 -3.59133
rclavicle -7.90418e-014 5.56597e-015
rhumerus -54.0299 -36.189 -58.5704
rradius 26.8571
rwrist 16.4892
rhand -19.8329 -44.8801
rfingers 7.12502
rthumb 6.50114 -74.7603
lclavicle -7.90418e-014 5.56597e-015
lhumerus -31.4019 19.607 61.0084
lradius 9.09174
lwrist -47.3665
lhand -35.0081 -19.6321
lfingers 7.12502
lthumb -8.15257 10.1907
rfemur -19.7282 3.64698 10.5969
rtibia 9.45865
rfoot -2.64316 -10.2213
rtoes -27.0597
lfemur -5.2017 -7.96298 -25.3415
ltibia 11.6139
lfoot -4.34002 -16.9694
ltoes -24.8982
287
root 6.89895 16.3626 -10.6729 -170.397 -29.1563 -182.709
lowerback -5.73465 6.13205 -5.92159
upperback 1.01383 8.60719 -0.478471
thorax 3.45683 4.15385 3.46263
lowerneck -0.516232 14.9669 8.84518
upperneck 6.31713 20.5264 -10.9351
head 4.01601 10.0561 -3.58187
rclavicle -9.44476e-014 2.18663e-015
rhumerus -53.7898 -35.8877 -58.8964
rradius 27.2133
rwrist 15.9196
rhand -20.037 -45.2349
rfingers 7.12502
rthumb 6.30407 -75.1211
lclavicle -9.44476e-014 2.18663e-015
lhumerus -31.6392 20.5212 60.3476
lradius 9.51105
lwrist -48.2466
lhand -34.7262 -20.6147
lfingers 7.12502
lthumb -7.88053 9.21838
rfemur -19.3355 3.57531 10.4806
rtibia 9.10781
rfoot -2.67572 -10.7618
rtoes -25.7916
lfemur -5.27734 -8.10192 -25.3477
ltibia 11.6881
lfoot -3.95511 -17.2976
ltoes -25.3597
288
root 6.89599 16.3649 -10.6567 -170.356 -29.8634 -182.704
lowerback -5.85378 6.23651 -5.85928
upperback 0.958698 8.74898 -0.523571
thorax 3.46837 4.22614 3.40234
lowerneck -0.0421631 15.0113 9.0779
upperneck 5.99703 20.6151 -11.3352
head 3.91818 10.116 -3.76408
rclavicle 1.21979e-013 -3.08116e-014
rhumerus -53.8106 -35.5732 -59.1251
rradius 27.4365
rwrist 15.9138
rhand -21.3008 -44.5951
rfingers 7.12502
rthumb 5.0839 -74.5141
lclavicle 1.21979e-013 -3.08116e-014
lhumerus -31.9949 21.3056 59.647
lradius 10.0855
lwrist -49.0779
lhand -34.347 -22.0389
lfingers 7.12502
lthumb -7.51446 7.80763
rfemur -18.999 3.79136 10.2859
rtibia 8.69206
rfoot -2.80841 -11.5621
rtoes -24.2685
lfemur -5.48227 -8.19536 -25.2781
ltibia 11.8121
lfoot -3.49746 -17.6754
ltoes -25.4225
289
root 6.8925 16.3705 -10.6456 -170.462 -30.4238 -182.738
lowerback -5.85553 6.43248 -5.82475
upperback 0.969105 9.00958 -0.578303
thorax 3.46955 4.35622 3.3438
lowerneck 0.187106 15.0407 8.94233
upperneck 5.80292 20.6574 -11.4058
head 3.82074 10.1444 -3.78945
rclavicle 5.07149e-014 3.77691e-015
rhumerus -53.6927 -35.1606 -59.5889
rradius 28.0669
rwrist 14.9653
rhand -21.1438 -44.9329
rfingers 7.12502
rthumb 5.23552 -74.8482
lclavicle 5.07149e-014 3.77691e-015
lhumerus -31.4109 18.6801 61.3722
lradius 10.5294
lwrist -46.0666
lhand -34.0406 -23.307
lfingers 7.12502
lthumb -7.21879 6.54986
rfemur -18.5448 3.97751 10.1416
rtibia 8.3478
rfoot -2.86802 -12.2208
rtoes -24.0379
lfemur -5.41735 -8.05598 -25.251
ltibia 11.7996
lfoot -3.01915 -18.0987
ltoes -25.4713
290
root 6.89023 16.376 -10.6312 -170.654 -31.0034 -182.74
lowerback -5.62563 6.60777 -5.70163
upperback 0.918491 9.21811 -0.662063
thorax 3.30143 4.47032 3.17009
lowerneck -0.125732 15.0832 8.40662
upperneck 6.12304 20.6853 -10.8641
head 3.85788 10.1437 -3.53345
rclavicle 1.90833e-014 -4.96962e-015
rhumerus -53.6069 -35.0031 -59.8616
rradius 28.4329
rwrist 14.4889
rhand -21.136 -44.8469
rfingers 7.12502
rthumb 5.24306 -74.762
lclavicle 1.90833e-014 -4.96962e-015
lhumerus -31.1071 17.5442 62.305
lradius 10.8486
lwrist -44.732
lhand -33.9518 -23.6425
lfingers 7.12502
lthumb -7.13302 6.21725
rfemur -18.125 3.91514 10.0928
rtibia 8.18665
rfoot -2.84112 -12.7264
rtoes -24.6101
lfemur -5.31659 -8.1626 -25.2406
ltibia 11.8809
lfoot -2.76781 -18.3925
ltoes -25.7752
291
root 6.88718 16.3764 -10.6117 -170.789 -31.6682 -182.727
lowerback -5.3966 6.71693 -5.55026
upperback 0.756413 9.33256 -0.793701
thorax 3.03986 4.54288 2.91861
lowerneck -0.286886 15.0878 8.18965
upperneck 6.54826 20.6683 -10.2699
head 3.92513 10.1335 -3.3146
rclavicle -2.11706e-014 -1.39149e-014
rhumerus -53.7074 -34.8778 -60.0572
rradius 28.6586
rwrist 14.0468
rhand -21.1071 -44.8106
rfingers 7.12502
rthumb 5.27098 -74.7251
lclavicle -2.11706e-014 -1.39149e-014
lhumerus -30.804 14.4116 64.2306
lradius 11.4902
lwrist -41.1902
lhand -34.0789 -22.4527
lfingers 7.12502
lthumb -7.25574 7.40286
rfemur -17.8425 3.4982 10.0822
rtibia 8.12967
rfoot -2.59944 -13.0335
rtoes -26.1466
lfemur -5.32577 -8.55371 -25.2529
ltibia 12.0291
lfoot -2.60349 -18.5647
ltoes -26.0147
292
root 6.88266 16.38 -10.5976 -170.998 -32.4655 -182.714
lowerback -5.40041 6.70857 -5.54476
upperback 0.80618 9.32345 -0.775025
thorax 3.09234 4.53579 2.93878
lowerneck 0.0600232 15.1382 8.11422
upperneck 6.3773 20.7216 -10.0261
head 3.78855 10.1831 -3.26891
rclavicle -2.10712e-014 4.77083e-015
rhumerus -53.5163 -34.5598 -60.3656
rradius 28.9084
rwrist 13.5465
rhand -21.0539 -45.0507
rfingers 7.12502
rthumb 5.32231 -74.9639
lclavicle -2.10712e-014 4.77083e-015
lhumerus -30.5577 11.2952 66.4059
lradius 12.2854
lwrist -37.5538
lhand -34.3381 -21.4895
lfingers 7.12502
lthumb -7.50589 8.35734
rfemur -17.3391 3.16215 10.0403
rtibia 7.95874
rfoot -2.50122 -13.5015
rtoes -26.753
lfemur -5.21904 -8.92816 -25.2636
ltibia 12.1391
lfoot -2.30237 -18.8272
ltoes -26.069
293
root 6.88895 16.3793 -10.5784 -170.945 -33.0483 -182.725
lowerback -5.65562 6.73534 -5.70567
upperback 0.904939 9.39076 -0.718251
thorax 3.29746 4.55629 3.12718
lowerneck -0.157924 15.3616 7.36569
upperneck 6.21428 20.9759 -9.52638
head 3.66594 10.3067 -3.00895
rclavicle -9.3553e-015 -3.86636e-014
rhumerus -53.1734 -34.2301 -60.762
rradius 29.2578
rwrist 13.3667
rhand -21.187 -45.1262
rfingers 7.12502
rthumb 5.19375 -75.0425
lclavicle -9.3553e-015 -3.86636e-014
lhumerus -30.2311 9.40717 68.0967
lradius 12.9089
lwrist -35.4464
lhand -34.714 -21.7283
lfingers 7.12502
lthumb -7.86872 8.10531
rfemur -17.2557 3.24014 9.93589
rtibia 7.9002
rfoot -2.63535 -14.148
rtoes -26.1376
lfemur -5.48717 -9.0045 -25.2092
ltibia 12.3451
lfoot -1.96581 -19.1428
ltoes -26.0934
294
root 6.89835 16.3805 -10.5547 -171 -33.577 -182.726
lowerback -5.5853 6.86029 -5.76681
upperback 0.874063 9.55545 -0.764577
thorax 3.20964 4.64073 3.10834
lowerneck 0.120451 15.2874 7.65324
upperneck 6.01137 20.8872 -9.74288
head 3.60516 10.2767 -3.14157
rclavicle -4.92365e-014 1.26228e-014
rhumerus -53.509 -34.2599 -60.8027
rradius 29.5382
rwrist 14.0019
rhand -21.4853 -44.5754
rfingers 7.12502
rthumb 4.90581 -74.4986
lclavicle -4.92365e-014 1.26228e-014
lhumerus -30.1485 6.74869 69.9342
lradius 13.7401
lwrist -32.734
lhand -34.9305 -22.1139
lfingers 7.12502
lthumb -8.07766 7.71173
rfemur -17.1085 3.64116 9.78909
rtibia 7.81042
rfoot -2.87274 -15.0521
rtoes -25.1607
lfemur -5.66938 -9.11902 -25.1147
ltibia 12.5094
lfoot -1.71111 -19.3736
ltoes -26.1116
